<svg id="Capa_1" data-name="Capa 1" xmlns="http://www.w3.org/2000/svg" width="160" height="160" viewBox="0 0 160 160"><title>ac</title><path d="M119.5,51a.6.6,0,0,1,.7.7v1h-1.1a.5.5,0,0,1-.6-.6v-1h1Zm-.1,3.5c.5,0,.7.2.7.7v8.9h-.9a.6.6,0,0,1-.6-.6V54.5ZM67.5,61.4l.4.5h0a6.6,6.6,0,0,1-11.5-4.4A6.6,6.6,0,0,1,67.8,53h0l-.5.6a.8.8,0,0,1-1,0,5.3,5.3,0,0,0-3.5-1.3,5.2,5.2,0,0,0,0,10.3,5,5,0,0,0,3.6-1.3A.9.9,0,0,1,67.5,61.4Zm23.3-7.1c2.2,0,3.6,1.4,3.6,3.8V64h-.9c-.6,0-.7-.4-.7-.8V58.4c0-1.7-.8-2.7-2.3-2.7A2.5,2.5,0,0,0,88,58.5V64h-.9a.6.6,0,0,1-.7-.7V58.4c0-1.7-.9-2.7-2.3-2.7a2.7,2.7,0,0,0-2.6,2.9v4.7c0,.6-.2.7-.6.7H80V54.4h.8a.7.7,0,0,1,.8.7v.7a3.4,3.4,0,0,1,2.9-1.6,3.1,3.1,0,0,1,3,1.8,3.8,3.8,0,0,1,3.3-1.7Zm11.1,0c2.2,0,4.5,1.7,4.5,5a4.6,4.6,0,0,1-4.5,4.9,4.1,4.1,0,0,1-3.5-1.8v4.5h-.9c-.5,0-.7-.2-.7-.7V54.5h.8c.5,0,.8.2.8.7v1A4,4,0,0,1,101.9,54.3Zm2.9,5a3.3,3.3,0,0,0-3.2-3.6,3.6,3.6,0,0,0,0,7.1A3.2,3.2,0,0,0,104.8,59.3Zm25.5-4.1a.7.7,0,0,1,.7-.7h.8v7.8c0,2.9-1.7,4.6-4.8,4.6a7.1,7.1,0,0,1-4.3-1.3h0l.3-.6a.5.5,0,0,1,.5-.3l.6.2a5.5,5.5,0,0,0,2.9.8,3,3,0,0,0,3.3-3.3v-.9a4.5,4.5,0,0,1-8.1-2.6,4.4,4.4,0,0,1,4.5-4.6,4.4,4.4,0,0,1,3.6,1.8Zm0,3.6a3.2,3.2,0,0,0-3.3-3.1,3.1,3.1,0,1,0,0,6.2A3.2,3.2,0,0,0,130.3,58.8Zm8.7-4.5a3.5,3.5,0,0,1,3.7,3.8V64h-.9c-.5,0-.7-.2-.7-.6V58.5c0-1.8-.9-2.8-2.5-2.8a2.7,2.7,0,0,0-2.7,2.9V64h-1.6V54.5h.9a.7.7,0,0,1,.7.6V56A3.6,3.6,0,0,1,139,54.3Zm-26.8.1c2.6,0,4,1.3,4.1,3.8V64h-.9a.5.5,0,0,1-.6-.6v-.7a4.3,4.3,0,0,1-3.4,1.5c-2.4,0-3.5-1.6-3.5-3s1.5-3,4.1-3h1.5v.5a.6.6,0,0,1-.7.7h-.7c-1.7,0-2.7.6-2.7,1.8s1.2,1.8,2.3,1.8,3.1-1.1,3.1-2.5V58.2c0-1.6-1-2.5-2.8-2.5a6.8,6.8,0,0,0-2.3.5c-.2.1-.6.1-.7-.2l-.3-.8h0a8.7,8.7,0,0,1,3.5-.7Zm-38.7,0c2.7,0,4.1,1.3,4.1,3.8V64h-.8c-.5,0-.7-.2-.7-.6v-.7a4,4,0,0,1-3.3,1.5c-2.4,0-3.6-1.6-3.6-3s1.5-3,4.1-3h1.6v.5a.6.6,0,0,1-.7.7h-.7q-2.7,0-2.7,1.8c0,1.2,1.2,1.8,2.3,1.8s3-1.1,3-2.5V58.2c0-1.6-.9-2.5-2.7-2.5a6.4,6.4,0,0,0-2.3.5.6.6,0,0,1-.8-.2,2.4,2.4,0,0,0-.2-.8h0a8.2,8.2,0,0,1,3.4-.7Zm85,3.5a1.1,1.1,0,0,1,.5.9V59a1.2,1.2,0,0,1-.5.9h0L154,63l-4.8,3.4v.2l-.2-.2h0V65.1a1,1,0,0,1,.6-1l7.5-5.2-7.5-5.2h0c-.4-.3-.6-.4-.6-.9V51.3h.1l9.4,6.5ZM153,59.6l-.6-.2c-.6-.4-3.4-2.3-3.4-2.4h-.1v-.9a.5.5,0,0,1,.3-.5.5.5,0,0,1,.6.1l4.5,3.1h0l-.5.4A1.3,1.3,0,0,1,153,59.6ZM22.9,61.8l.4.5h.1a5.2,5.2,0,0,1-3.9,1.8,5,5,0,0,1,0-9.9A4.8,4.8,0,0,1,23.3,56h0l-.5.5c-.3.3-.6.3-1.1,0a3,3,0,0,0-2.2-.9,3.6,3.6,0,0,0,.1,7.1,3.5,3.5,0,0,0,2.3-.9.8.8,0,0,1,1-.1ZM33.1,51a.7.7,0,0,1,.7.8v.9H32.7c-.6,0-.7-.3-.7-.6v-1h1.1ZM33,54.5a.6.6,0,0,1,.7.7v8.9h-1a.6.6,0,0,1-.6-.6V54.5ZM43,55a1.1,1.1,0,0,1,.9-.5h1c0,.1-3.7,8.6-3.9,8.9a.7.7,0,0,1-.8.5H40a.8.8,0,0,1-.8-.5c-.1-.3-3.8-8.9-3.9-8.9h1.1a.9.9,0,0,1,.9.5c.1.4,2.4,6,2.8,7.1C40.6,61,42.9,55.4,43,55Zm9.7,3.7a.1.1,0,0,0,.1-.1c.1,0,.1-.2.1-.3A2.7,2.7,0,0,0,50,55.7c-1.5,0-2.7,1.2-2.9,3.1v1a3.3,3.3,0,0,0,3.2,3.1,3.9,3.9,0,0,0,2.6-.9.5.5,0,0,1,.8,0l.5.4h0a4.9,4.9,0,0,1-3.9,1.7,4.8,4.8,0,0,1-4.8-4.9,4.7,4.7,0,0,1,4.6-5,4.2,4.2,0,0,1,4.4,4,1.6,1.6,0,0,1-.4,1.2,1.2,1.2,0,0,1-1.1.4H48.3v-.6c0-.4.3-.6.7-.6ZM8.6,51.5c.1.4,5.5,12.3,5.5,12.4h-.8a1.2,1.2,0,0,1-1.1-.5L7.6,53,4.8,59.2H8.9v.7a.7.7,0,0,1-.8.8H4.2C4,61,3.1,63,2.9,63.4A1,1,0,0,1,2,64H1c.1-.1,5.5-12.1,5.6-12.4a1,1,0,0,1,.8-.5h.3c.5,0,.7.1.8.5ZM29.8,62.7c.1,0,.2.2.2.4v.6h-.1a5.3,5.3,0,0,1-1.9.4,2.4,2.4,0,0,1-2.7-2.7V51.1H26a.7.7,0,0,1,.8.7v2.7H29a.7.7,0,0,1,.8.7v.7h-3v5.4a1.3,1.3,0,0,0,1.5,1.5l.9-.2a.6.6,0,0,1,.6.1Z" fill="#356ae6" fill-rule="evenodd"/></svg>