<svg id="Capa_1" data-name="Capa 1" xmlns="http://www.w3.org/2000/svg" width="160" height="160" viewBox="0 0 160 160"><title>nextjs</title><rect x="108" y="128" width="7" height="6" transform="translate(-50.6 73.3) rotate(-30)" fill="#fff"/><circle cx="81.4" cy="80.9" r="60.1" fill="#fff"/><path d="M78,20l-1.8.2A61.3,61.3,0,0,0,21.5,72.1,57.1,57.1,0,0,0,21,81a56.3,56.3,0,0,0,.5,8.9,61.6,61.6,0,0,0,41.8,49.3,60.1,60.1,0,0,0,12.9,2.6,74.9,74.9,0,0,0,11.6,0,61.1,61.1,0,0,0,22-6.4c1.1-.5,1.3-.7,1.1-.8s-4.5-6-9.9-13.3l-9.8-13.2L79,90c-6.7-9.9-12.2-18-12.3-18s-.1,8-.1,17.8c0,17.2-.1,17.9-.3,18.3a2.2,2.2,0,0,1-1,1.1c-.4.2-.7.2-2.5,0H60.7l-.5-.2a1.5,1.5,0,0,1-.8-.8l-2-.6,1.9-23.9V59.8l.2-.5.9-.7c.5-.2.7-.2,2.8-.2s2.8.1,3.4.7,6.8,10.2,14.7,22.2,18.8,28.4,24.1,36.5l9.7,14.6.5-.3a64.5,64.5,0,0,0,12.5-11,61.4,61.4,0,0,0,14.4-31.2A56.3,56.3,0,0,0,143,81a57.1,57.1,0,0,0-.5-8.9,61.6,61.6,0,0,0-41.8-49.3A66.3,66.3,0,0,0,88,20.2c-1.1-.1-9-.3-10-.2Zm24.9,36.3a2.6,2.6,0,0,1,1.2,1.5c.1.3.1,7.1.1,22.4v22l-3.9-5.9-3.9-6V74.4c0-10.4,0-16.2.1-16.5a2.3,2.3,0,0,1,1.2-1.5c.5-.3.7-.3,2.6-.3S102.5,56.1,102.9,56.3Z"/></svg>