<svg id="Capa_1" data-name="Capa 1" xmlns="http://www.w3.org/2000/svg" width="160" height="160" viewBox="0 0 160 160"><title>premiere</title><g id="vlpa"><g id="vlpb"><g id="vlpc"><g id="vlpd"><path d="M43.2,26.6h72A19.8,19.8,0,0,1,135,46.4v69.3a19.7,19.7,0,0,1-19.8,19.7h-72a19.8,19.8,0,0,1-19.8-19.7V46.4A19.8,19.8,0,0,1,43.2,26.6Z" fill="#00005b"/></g></g></g><g id="vlpe"><g id="vlpf"><path d="M49.9,102.9V55a.5.5,0,0,1,.5-.5H64.8a29.5,29.5,0,0,1,9.6,1.4,16.3,16.3,0,0,1,6.2,3.9A13.4,13.4,0,0,1,84,64.8a17.3,17.3,0,0,1,1.1,6,17,17,0,0,1-2.8,9.9,16.3,16.3,0,0,1-7.5,5.7A32.1,32.1,0,0,1,64.3,88H60v14.9a.5.5,0,0,1-.5.6h-9c-.4,0-.6-.1-.6-.6ZM60.1,63.5V79.1h4.2a19.6,19.6,0,0,0,5.4-.8,7.5,7.5,0,0,0,3.8-2.5,6.9,6.9,0,0,0,1.4-4.8,6.7,6.7,0,0,0-4.3-6.8,14.5,14.5,0,0,0-5.5-.9H62a11.1,11.1,0,0,0-1.9,0Z" fill="#99f"/><path d="M91.8,66.2h8.1a1.2,1.2,0,0,1,1,.8l.3,1.2a7.8,7.8,0,0,0,.2,1.4c0,.5.1,1.1.1,1.7a15,15,0,0,1,5-4,14.3,14.3,0,0,1,7-1.8c.3-.1.6.1.7.5v9.2c0,.4-.3.5-.8.5a21.2,21.2,0,0,0-5,.5,29.1,29.1,0,0,0-3.9,1.2,8.4,8.4,0,0,0-2.4,1.8v23.7a.5.5,0,0,1-.6.6H92.4a.7.7,0,0,1-.8-.5V73.5c-.1-1.2-.1-2.4-.1-3.6a30.3,30.3,0,0,0-.2-3.1.6.6,0,0,1,.3-.6Z" fill="#99f"/></g></g></g></svg>